<svg width="57" height="56" viewBox="0 0 57 56" fill="none" xmlns="http://www.w3.org/2000/svg">
    <path d="M3.5625 28C3.5625 34.4978 6.18984 40.7295 10.8665 45.3241C15.5432 49.9188 21.8862 52.5 28.5 52.5C35.1138 52.5 41.4568 49.9188 46.1335 45.3241C50.8102 40.7295 53.4375 34.4978 53.4375 28C53.4375 21.5022 50.8102 15.2705 46.1335 10.6759C41.4568 6.08124 35.1138 3.5 28.5 3.5C21.8862 3.5 15.5432 6.08124 10.8665 10.6759C6.18984 15.2705 3.5625 21.5022 3.5625 28ZM57 28C57 35.4261 53.9973 42.548 48.6525 47.799C43.3078 53.05 36.0587 56 28.5 56C20.9413 56 13.6922 53.05 8.34746 47.799C3.00267 42.548 0 35.4261 0 28C0 20.5739 3.00267 13.452 8.34746 8.20101C13.6922 2.94999 20.9413 0 28.5 0C36.0587 0 43.3078 2.94999 48.6525 8.20101C53.9973 13.452 57 20.5739 57 28ZM19.5938 14.007H30.1459C35.7853 14.007 39.1875 17.864 39.1875 23.051C39.1875 28.28 35.7426 32.074 30.1031 32.074H24.168V42H19.5938V14.007ZM29.4619 28.259C32.6432 28.259 34.5171 26.3515 34.5171 23.051C34.5171 19.7505 32.6432 17.864 29.4583 17.864H24.1466V28.259H29.4619Z" fill="#B0B0B0"/>
</svg>
