<svg width="57" height="57" viewBox="0 0 57 57" fill="none" xmlns="http://www.w3.org/2000/svg">
    <path d="M3.5625 28.5C3.5625 35.1138 6.18984 41.4568 10.8665 46.1335C15.5432 50.8102 21.8862 53.4375 28.5 53.4375C35.1138 53.4375 41.4568 50.8102 46.1335 46.1335C50.8102 41.4568 53.4375 35.1138 53.4375 28.5C53.4375 21.8862 50.8102 15.5432 46.1335 10.8665C41.4568 6.18984 35.1138 3.5625 28.5 3.5625C21.8862 3.5625 15.5432 6.18984 10.8665 10.8665C6.18984 15.5432 3.5625 21.8862 3.5625 28.5ZM57 28.5C57 36.0587 53.9973 43.3078 48.6525 48.6525C43.3078 53.9973 36.0587 57 28.5 57C20.9413 57 13.6922 53.9973 8.34746 48.6525C3.00267 43.3078 0 36.0587 0 28.5C0 20.9413 3.00267 13.6922 8.34746 8.34746C13.6922 3.00267 20.9413 0 28.5 0C36.0587 0 43.3078 3.00267 48.6525 8.34746C53.9973 13.6922 57 20.9413 57 28.5ZM19.5938 14.2571H30.1459C35.7853 14.2571 39.1875 18.183 39.1875 23.4626C39.1875 28.785 35.7426 32.6467 30.1031 32.6467H24.168V42.75H19.5938V14.2571ZM29.4619 28.7636C32.6432 28.7636 34.5171 26.8221 34.5171 23.4626C34.5171 20.1032 32.6432 18.183 29.4583 18.183H24.1466V28.7636H29.4619Z" fill="#5E076E"/>
</svg>
